<?xml version="1.0" encoding="UTF-8"?>
<svg id="allbestview" xmlns="http://www.w3.org/2000/svg" xml:space="preserve" width="32" height="32" version="1.1" shape-rendering="geometricPrecision" text-rendering="geometricPrecision" image-rendering="optimizeQuality" fill-rule="evenodd" clip-rule="evenodd" viewBox="0 0 640 640" xmlns:xlink="http://www.w3.org/1999/xlink">
<g><path fill="#FFFFFF" d="M566 116c46,55 74,126 74,204 0,177 -143,320 -320,320 -177,0 -320,-143 -320,-320 0,-78 28,-149 74,-204l492 0zm-246 192c64,0 116,52 116,116 0,65 -52,117 -116,117 -64,0 -116,-52 -116,-117 0,-64 52,-116 116,-116z"/><path fill="#007AAA" d="M566 116l-97 124 53 86c69,111 -15,314 -202,314 -188,0 -271,-203 -202,-314l53 -86 -97 -124 174 0 72 -116 72 116 174 0zm-173 222l-73 94 -73 -94c-26,21 -42,52 -42,87 0,64 52,115 115,115 63,0 115,-51 115,-115 0,-35 -16,-66 -42,-87z"/></g>
</svg>
