<?xml version="1.0" encoding="UTF-8"?>
<svg xmlns="http://www.w3.org/2000/svg" xml:space="preserve" width="64" height="64" version="1.1" shape-rendering="geometricPrecision" text-rendering="geometricPrecision" image-rendering="optimizeQuality" fill-rule="evenodd" clip-rule="evenodd" viewBox="0 0 64 64" xmlns:xlink="http://www.w3.org/1999/xlink"><g><path fill="#007AAA" d="M32 0c18,0 32,14 32,32 0,18 -14,32 -32,32 -18,0 -32,-14 -32,-32 0,-18 14,-32 32,-32zm-20 31c-7,-11 1,-31 20,-31 19,0 27,20 20,31l-5 9 10 12 -17 0 -8 12 -8 -12 -17 0 10 -12 -5 -9z"/><path fill="#FEFEFE" d="M12 31c-7,-11 1,-31 20,-31 19,0 27,20 20,31l-5 9 10 12 -17 0 -8 12 -8 -12 -17 0 10 -12 -5 -9zm27 -2l-7 -9 -7 9c-2,-2 -3,-4 -3,-7 0,-6 4,-11 10,-11 6,0 10,5 10,11 0,3 -1,5 -3,7z"/></g></svg>
