<?xml version="1.0" encoding="UTF-8"?>
<!-- Creator: CorelDRAW X7 -->
<svg xmlns="http://www.w3.org/2000/svg" xml:space="preserve" width="64" height="64" version="1.1" shape-rendering="geometricPrecision" text-rendering="geometricPrecision" image-rendering="optimizeQuality" fill-rule="evenodd" clip-rule="evenodd" viewBox="0 0 1024 1024" xmlns:xlink="http://www.w3.org/1999/xlink"><path fill="black" d="M439 3c-248,35 -439,249 -439,506 0,283 229,512 512,512 283,0 512,-229 512,-512 0,-257 -191,-471 -439,-506 7,2 13,4 20,6 234,58 329,333 230,491l-81 131 152 195 -273 0 -121 195 -121 -195 -273 0 152 -195 -82 -131c-98,-158 -2,-432 230,-491 7,-2 14,-4 21,-6z"/></svg>