<?xml version="1.0" standalone="no"?>
<!DOCTYPE svg PUBLIC "-//W3C//DTD SVG 20010904//EN"
 "http://www.w3.org/TR/2001/REC-SVG-20010904/DTD/svg10.dtd">
<svg version="1.0" xmlns="http://www.w3.org/2000/svg"
 width="512.000000pt" height="512.000000pt" viewBox="0 0 512.000000 512.000000"
 preserveAspectRatio="xMidYMid meet">
<metadata>
Created by potrace 1.14, written by Peter Selinger 2001-2017
</metadata>
<g transform="translate(0.000000,512.000000) scale(0.100000,-0.100000)"
fill="#000000" stroke="none">
<path d="M2115 5084 c-541 -105 -986 -337 -1359 -709 -263 -262 -458 -564
-589 -910 -83 -220 -134 -445 -155 -690 -9 -100 -8 -349 2 -450 46 -464 216
-909 489 -1275 39 -52 73 -97 76 -100 3 -3 22 -25 42 -50 103 -128 339 -339
505 -451 295 -199 688 -357 999 -403 23 -4 50 -8 61 -10 70 -14 204 -21 379
-21 202 0 303 7 425 30 14 3 41 7 60 10 19 3 43 8 52 11 9 3 25 6 35 8 10 2
45 11 78 20 33 9 68 19 78 21 61 14 260 92 374 147 752 360 1285 1074 1417
1899 47 290 41 609 -14 894 -114 576 -418 1091 -871 1471 -52 44 -116 95 -144
114 -27 18 -51 37 -53 42 -2 4 -8 8 -13 8 -4 0 -39 20 -76 44 -163 104 -389
209 -573 265 -58 18 -119 37 -136 42 -17 5 -42 12 -55 14 -13 3 -46 9 -74 15
-126 25 -158 30 -162 27 -2 -3 18 -10 44 -17 79 -20 146 -42 188 -60 22 -10
61 -27 87 -38 25 -11 82 -41 125 -68 243 -147 444 -366 577 -631 49 -96 120
-299 131 -373 4 -25 8 -47 10 -50 17 -28 27 -327 14 -415 -5 -33 -11 -74 -14
-91 -8 -59 -57 -199 -94 -274 -33 -65 -355 -593 -383 -627 -8 -10 2 -29 33
-70 24 -31 58 -74 75 -97 18 -23 142 -183 277 -356 135 -173 244 -316 242
-319 -3 -2 -263 -4 -580 -4 l-575 1 -13 -27 c-14 -28 -405 -659 -464 -749
l-35 -53 -160 258 c-88 142 -204 328 -257 413 l-96 155 -565 3 c-311 1 -571 2
-579 2 -16 0 -16 0 80 122 49 63 494 634 540 693 5 6 -48 101 -127 225 -74
118 -137 222 -141 230 -4 8 -27 46 -51 83 -88 137 -148 302 -171 472 -9 67 -7
308 2 350 3 11 8 40 12 65 4 25 9 52 10 60 7 39 29 111 52 175 14 39 27 79 31
90 11 39 101 205 155 287 202 305 510 524 867 617 85 23 59 25 -45 5z"/>
</g>
</svg>
