<?xml version="1.0" encoding="UTF-8"?>
<svg xmlns="http://www.w3.org/2000/svg" xml:space="preserve" width="48px" height="48px" version="1.1" viewBox="0 0 1200 1200" xmlns:xlink="http://www.w3.org/1999/xlink"><g id="allbestview"><g><path d="M979 589c79,-127 52,-318 -61,-448l-39 53 -100 134c11,25 17,52 17,81 0,56 -24,106 -61,142l-63 -80 -373 500 159 0 142 229 142 -229 320 0 -178 -229 95 -153z" fill="#000000"/><path d="M918 141c-72,-83 -180,-141 -318,-141 -350,0 -509,380 -379,589l95 154 -178 228 161 0 373 -500 -72 -93 -135 173c-37,-36 -61,-86 -61,-142 0,-109 88,-196 196,-196 79,0 148,47 179,115l139 -187z" fill="#007AAA"/></g></g></svg>