<?xml version="1.0" encoding="UTF-8"?>
<!DOCTYPE svg PUBLIC "-//W3C//DTD SVG 1.1//EN" "http://www.w3.org/Graphics/SVG/1.1/DTD/svg11.dtd">
<svg xmlns="http://www.w3.org/2000/svg" xml:space="preserve" width="512px" height="512px" version="1.1" style="shape-rendering:geometricPrecision; text-rendering:geometricPrecision; image-rendering:optimizeQuality; fill-rule:evenodd; clip-rule:evenodd" viewBox="0 0 1200 1200" xmlns:xlink="http://www.w3.org/1999/xlink">
 <defs>
  <style type="text/css">
   <![CDATA[
    .fil0 {fill:black}
    .fil1 {fill:black}
   ]]>
  </style>
 </defs>
 <g id="allbestview">
  <g id="logo">
   <path class="fil0" d="M979 589c79,-127 52,-318 -61,-448l-39 53 -100 134c11,25 17,52 17,81 0,56 -24,106 -61,142l-63 -80 -373 500 159 0 142 229 142 -229 320 0 -178 -229 95 -153z"/>
   <path class="fil1" d="M918 141c-72,-83 -180,-141 -318,-141 -350,0 -509,380 -379,589l95 154 -178 228 161 0 373 -500 -72 -93 -135 173c-37,-36 -61,-86 -61,-142 0,-109 88,-196 196,-196 79,0 148,47 179,115l139 -187z"/>
  </g>
 </g>
</svg>